{
  "accessors": [
    {
      "bufferView": 2,
      "componentType": 5126,
      "count": 1410,
      "max": [
        3.5353291034698486,
        2.5990889072418213,
        1.7154799699783325
      ],
      "min": [
        -50.23844909667969,
        -8.444458961486816,
        -18.88088035583496
      ],
      "type": "VEC3"
    },
    {
      "bufferView": 2,
      "byteOffset": 16920,
      "componentType": 5126,
      "count": 1410,
      "max": [
        0.48572060465812683,
        0.9989227056503296,
        0.9845954179763794
      ],
      "min": [
        -0.6895161271095276,
        -0.9989045262336731,
        -0.9916431903839111
      ],
      "type": "VEC3"
    },
    {
      "bufferView": 1,
      "componentType": 5126,
      "count": 1410,
      "max": [
        0.9345030188560486,
        0.466968297958374
      ],
      "min": [
        0.06557518243789673,
        0.13449139893054962
      ],
      "type": "VEC2"
    },
    {
      "bufferView": 0,
      "componentType": 5125,
      "count": 6624,
      "type": "SCALAR"
    },
    {
      "bufferView": 2,
      "byteOffset": 33840,
      "componentType": 5126,
      "count": 1088,
      "max": [
        1.7553379535675049,
        1.758018970489502,
        11.06151008605957
      ],
      "min": [
        -2.544193983078003,
        -1.8001610040664673,
        -89.81551361083984
      ],
      "type": "VEC3"
    },
    {
      "bufferView": 2,
      "byteOffset": 46896,
      "componentType": 5126,
      "count": 1088,
      "max": [
        0.9999992251396179,
        0.9999997615814209,
        0.8022881746292114
      ],
      "min": [
        -0.9999905228614807,
        -0.9999997615814209,
        -0.8543866276741028
      ],
      "type": "VEC3"
    },
    {
      "bufferView": 1,
      "byteOffset": 11280,
      "componentType": 5126,
      "count": 1088,
      "max": [
        0.5172559022903442,
        0.3254168927669525
      ],
      "min": [
        0.46236640214920044,
        0.09495352953672409
      ],
      "type": "VEC2"
    },
    {
      "bufferView": 0,
      "byteOffset": 26496,
      "componentType": 5125,
      "count": 6132,
      "type": "SCALAR"
    },
    {
      "bufferView": 2,
      "byteOffset": 59952,
      "componentType": 5126,
      "count": 20064,
      "max": [
        239.15609741210938,
        241.50840759277344,
        11.064749717712402
      ],
      "min": [
        -249.2736053466797,
        -233.6479949951172,
        -28.977170944213867
      ],
      "type": "VEC3"
    },
    {
      "bufferView": 2,
      "byteOffset": 300720,
      "componentType": 5126,
      "count": 20064,
      "max": [
        0.9905548095703125,
        0.9950227737426758,
        0.9999632835388184
      ],
      "min": [
        -0.9942976236343384,
        -0.9871360063552856,
        -0.9970507025718689
      ],
      "type": "VEC3"
    },
    {
      "bufferView": 1,
      "byteOffset": 19984,
      "componentType": 5126,
      "count": 20064,
      "max": [
        0.5114399194717407,
        0.23772570490837097
      ],
      "min": [
        0.46530649065971375,
        0.14695289731025696
      ],
      "type": "VEC2"
    },
    {
      "bufferView": 0,
      "byteOffset": 51024,
      "componentType": 5125,
      "count": 30222,
      "type": "SCALAR"
    },
    {
      "bufferView": 2,
      "byteOffset": 541488,
      "componentType": 5126,
      "count": 3780,
      "max": [
        10.313409805297852,
        9.451040267944336,
        31.26660919189453
      ],
      "min": [
        -7.20279598236084,
        -8.921284675598145,
        7.337428092956543
      ],
      "type": "VEC3"
    },
    {
      "bufferView": 2,
      "byteOffset": 586848,
      "componentType": 5126,
      "count": 3780,
      "max": [
        0.9990290999412537,
        0.9994671940803528,
        0.5001466870307922
      ],
      "min": [
        -0.9992884993553162,
        -0.9994332790374756,
        -0.9753516912460327
      ],
      "type": "VEC3"
    },
    {
      "bufferView": 1,
      "byteOffset": 180496,
      "componentType": 5126,
      "count": 3780,
      "max": [
        0.6989458799362183,
        0.8018720746040344
      ],
      "min": [
        0.388896107673645,
        0.2474973052740097
      ],
      "type": "VEC2"
    },
    {
      "bufferView": 0,
      "byteOffset": 171912,
      "componentType": 5125,
      "count": 19584,
      "type": "SCALAR"
    }
  ],
  "asset": {
    "extras": {
      "author": "3Dee (https://sketchfab.com/mellydeeis)",
      "license": "CC-BY-4.0 (http://creativecommons.org/licenses/by/4.0/)",
      "source": "https://sketchfab.com/3d-models/tulip-aec0943ae2184cd7aa43c04945952d70",
      "title": "Tulip"
    },
    "generator": "Sketchfab-12.67.0",
    "version": "2.0"
  },
  "bufferViews": [
    {
      "buffer": 0,
      "byteLength": 250248,
      "name": "floatBufferViews",
      "target": 34963
    },
    {
      "buffer": 0,
      "byteLength": 210736,
      "byteOffset": 250248,
      "byteStride": 8,
      "name": "floatBufferViews",
      "target": 34962
    },
    {
      "buffer": 0,
      "byteLength": 632208,
      "byteOffset": 460984,
      "byteStride": 12,
      "name": "floatBufferViews",
      "target": 34962
    }
  ],
  "buffers": [
    {
      "byteLength": 1093192,
      "uri": "scene.bin"
    }
  ],
  "extensionsUsed": [
    "KHR_materials_clearcoat"
  ],
  "images": [
    {
      "uri": "textures/Material_baseColor.png"
    },
    {
      "uri": "textures/Material_metallicRoughness.png"
    },
    {
      "uri": "textures/Material_001_baseColor.jpeg"
    },
    {
      "uri": "textures/Material_001_metallicRoughness.png"
    },
    {
      "uri": "textures/Material_001_clearcoat.png"
    }
  ],
  "materials": [
    {
      "doubleSided": true,
      "name": "Material",
      "pbrMetallicRoughness": {
        "baseColorTexture": {
          "index": 0
        },
        "metallicFactor": 0.2578616352201258,
        "metallicRoughnessTexture": {
          "index": 1
        },
        "roughnessFactor": 0.8176100628930818
      }
    },
    {
      "doubleSided": true,
      "extensions": {
        "KHR_materials_clearcoat": {
          "clearcoatFactor": 0.1949685534591195,
          "clearcoatRoughnessFactor": 0.04,
          "clearcoatTexture": {
            "index": 4
          }
        }
      },
      "name": "Material_001",
      "pbrMetallicRoughness": {
        "baseColorTexture": {
          "index": 2
        },
        "metallicRoughnessTexture": {
          "index": 3
        }
      }
    }
  ],
  "meshes": [
    {
      "name": "Material_001-material",
      "primitives": [
        {
          "attributes": {
            "NORMAL": 1,
            "POSITION": 0,
            "TEXCOORD_0": 2
          },
          "indices": 3,
          "material": 1,
          "mode": 4
        }
      ]
    },
    {
      "name": "Material-material",
      "primitives": [
        {
          "attributes": {
            "NORMAL": 5,
            "POSITION": 4,
            "TEXCOORD_0": 6
          },
          "indices": 7,
          "material": 0,
          "mode": 4
        }
      ]
    },
    {
      "name": "Material-material",
      "primitives": [
        {
          "attributes": {
            "NORMAL": 9,
            "POSITION": 8,
            "TEXCOORD_0": 10
          },
          "indices": 11,
          "material": 0,
          "mode": 4
        }
      ]
    },
    {
      "name": "Material-material",
      "primitives": [
        {
          "attributes": {
            "NORMAL": 13,
            "POSITION": 12,
            "TEXCOORD_0": 14
          },
          "indices": 15,
          "material": 0,
          "mode": 4
        }
      ]
    }
  ],
  "nodes": [
    {
      "children": [
        1
      ],
      "matrix": [
        1.0,
        0.0,
        0.0,
        0.0,
        0.0,
        2.220446049250313e-16,
        -1.0,
        0.0,
        0.0,
        1.0,
        2.220446049250313e-16,
        0.0,
        0.0,
        0.0,
        0.0,
        1.0
      ],
      "name": "Sketchfab_model"
    },
    {
      "children": [
        2,
        4,
        6,
        8
      ],
      "name": "Collada visual scene group"
    },
    {
      "children": [
        3
      ],
      "matrix": [
        0.1046472,
        -0.07337172,
        0.3155227,
        0.0,
        0.08647951,
        0.3258715,
        0.04709617,
        0.0,
        -0.3121847,
        0.06567608,
        0.1188125,
        0.0,
        -0.02828288,
        0.03425686,
        -6.111624,
        1.0
      ],
      "name": "Plane_005"
    },
    {
      "mesh": 0,
      "name": "Material_001-material"
    },
    {
      "children": [
        5
      ],
      "matrix": [
        0.2325179,
        0.0,
        0.0,
        0.0,
        0.0,
        0.2325179,
        0.0,
        0.0,
        0.0,
        0.0,
        0.2325179,
        0.0,
        -0.06217643,
        -0.005632628,
        -4.194127,
        1.0
      ],
      "name": "Cylinder_017"
    },
    {
      "mesh": 1,
      "name": "Material-material"
    },
    {
      "children": [
        7
      ],
      "matrix": [
        -0.000596996,
        0.003147897,
        0.0,
        0.0,
        -0.003147897,
        -0.000596996,
        0.0,
        0.0,
        0.0,
        0.0,
        0.1127695,
        0.0,
        0.04427303,
        0.03787869,
        0.63994,
        1.0
      ],
      "name": "Cylinder_009"
    },
    {
      "mesh": 2,
      "name": "Material-material"
    },
    {
      "children": [
        9
      ],
      "matrix": [
        0.2325179,
        0.0,
        0.0,
        0.0,
        0.0,
        0.2325179,
        0.0,
        0.0,
        0.0,
        0.0,
        0.2325179,
        0.0,
        -0.06217643,
        -0.005632628,
        -4.194127,
        1.0
      ],
      "name": "Cylinder"
    },
    {
      "mesh": 3,
      "name": "Material-material"
    }
  ],
  "samplers": [
    {
      "magFilter": 9729,
      "minFilter": 9987,
      "wrapS": 10497,
      "wrapT": 10497
    }
  ],
  "scene": 0,
  "scenes": [
    {
      "name": "Sketchfab_Scene",
      "nodes": [
        0
      ]
    }
  ],
  "textures": [
    {
      "sampler": 0,
      "source": 0
    },
    {
      "sampler": 0,
      "source": 1
    },
    {
      "sampler": 0,
      "source": 2
    },
    {
      "sampler": 0,
      "source": 3
    },
    {
      "sampler": 0,
      "source": 4
    }
  ]
}
